# xmcd
#
# Track frame offsets:
# 150
# 13326
# 24040
# 38199
# 53729
# 67501
# 82746
# 96018
# 107703
# 121259
# 139551
# 154548
# 172125
# 186731
#
# Disc length: 2654 seconds
#
#
# Revision: 0
# Processed by: cddbd v1.5.1PL0 Copyright (c) Steve Scherf et al.
# Submitted via: FreeRIP 2.92 
#
DISCID=a70a5c0e
DTITLE=Hnos. Vega  - Musiquito Del Talon 
DYEAR=1999
DGENRE=Norteño 
TTITLE0=El Jorongo  Cantan Hnos. Vega
TTITLE1=La Morenita  Cantan Hnos. Vega
TTITLE2=Leonardo Reyes  Cantan Hnos. Vega
TTITLE3=Juan Ramos  Cantan Hnos. Vega
TTITLE4=La Vivora Peligrosa  Cantan Hnos. Vega
TTITLE5=La Cantaleta  Cantan Hnos. Vega
TTITLE6=Adolecente Y Bonita  Cantan Hnos. Vega
TTITLE7=Musiquito De Talon  Cantan Hnos. Vega
TTITLE8=Contrabando De Nogales  Cantan Hnos. Vega
TTITLE9=Cuentame Tus Penas  Cantan Hnos. Vega
TTITLE10=Palabra De Hombre  Cantan Hnos. Vega
TTITLE11=La Yegua Y La Potranca  Cantan Hnos. Vega
TTITLE12=El Pajarito  Cantan Hnos. Vega
TTITLE13=Como Esos Amantes  Cantan Hnos. Vega
EXTD=
EXTT0=
EXTT1=
EXTT2=
EXTT3=
EXTT4=
EXTT5=
EXTT6=
EXTT7=
EXTT8=
EXTT9=
EXTT10=
EXTT11=
EXTT12=
EXTT13=
PLAYORDER=
